<?xml version="1.0" encoding="UTF-8"?>
<svg xmlns="http://www.w3.org/2000/svg" width="188" height="41" viewBox="0 0 188 41" fill="none">
  <g id="g10">
    <path id="path12" d="M137.311 6.88922C137.298 6.88185 137.296 6.8576 137.295 6.8446C137.293 6.83161 137.3 6.81732 137.314 6.82511C137.328 6.83248 137.331 6.85717 137.332 6.87103C137.333 6.88489 137.324 6.89701 137.311 6.88922ZM150.447 0.554354C148.739 0.492849 147.144 0.611095 145.513 0.546993C145.298 0.538332 145.246 0.627121 145.285 0.827658C145.476 1.79742 145.771 2.76892 145.947 3.75211C146.05 4.3221 146.107 4.89815 146.097 5.48026C146.081 6.36903 146 7.26343 145.975 8.1522C145.959 8.69923 145.915 9.23458 145.804 9.76948C145.767 9.95226 145.722 10.1498 145.693 10.3274C145.556 11.175 145.512 11.884 145.02 12.5952C144.934 12.7195 144.675 12.7944 144.606 12.7944C144.123 12.7936 143.828 12.7676 143.477 12.4033C143.167 12.0819 143.019 11.6363 142.785 11.2581C142.693 11.11 142.598 10.958 142.543 10.7921C142.363 10.2468 142.131 9.71795 141.967 9.16788C141.937 9.06653 141.885 8.9708 141.855 8.87032C141.676 8.29427 141.529 7.69699 141.419 7.10491C141.284 6.37856 141.209 5.61281 141.134 4.89122C141.005 3.64469 141.108 2.25567 141.215 1.04769C141.249 0.675634 141.208 0.595932 140.861 0.584671C138.679 0.514071 136.486 0.545261 134.293 0.525337C133.417 0.517542 132.531 0.488522 131.636 0.525337C131.472 0.531834 131.332 0.536594 131.375 0.812927C131.479 1.49163 131.561 2.36697 131.669 3.08682C131.934 4.84747 132.209 6.63974 132.474 8.41078C132.597 9.22982 132.719 10.0558 132.854 10.8739C132.967 11.5514 133.116 12.2218 133.217 12.9018C133.355 13.827 133.448 14.7547 133.579 15.6825C133.747 16.8727 133.953 18.0521 134.116 19.2454C134.294 20.5456 134.457 21.9398 134.629 23.247C134.664 23.5142 134.656 23.7884 134.737 24.0647C134.818 24.3406 135.063 24.5983 135.366 24.6048C136.616 24.6299 137.795 24.5611 139.028 24.5996C139.101 24.6022 139.171 24.6109 139.244 24.5966C139.384 24.5689 139.437 24.471 139.415 24.3363C139.407 24.2908 139.375 24.2449 139.363 24.2115C139.352 24.1786 139.349 24.1583 139.34 24.1357C138.872 22.8372 138.401 21.579 137.96 20.274C137.855 19.9652 137.761 19.6547 137.689 19.3385C137.507 18.5489 137.34 17.7558 137.205 16.958C137.099 16.3374 136.953 15.7262 136.985 15.0943C137.027 14.2644 137.206 13.3653 137.388 12.655C137.41 12.5679 137.498 12.4211 137.56 12.3565C137.812 12.0941 138.038 11.936 138.391 11.8584C138.59 11.8147 138.85 11.7865 139.04 11.8325C139.554 11.9559 139.912 12.2569 140.28 12.6012C140.514 12.82 140.76 13.0374 140.878 13.3224C141.279 14.2922 141.576 15.2727 141.922 16.2542C141.993 16.4552 142.043 16.6648 142.095 16.8675C142.146 17.0702 142.151 17.2824 142.168 17.4782C142.186 17.6744 142.189 17.8607 142.198 18.0408C142.257 19.183 142.369 20.3117 142.388 21.4512C142.403 22.3417 142.3 23.2266 142.258 24.1158C142.256 24.1587 142.276 24.264 142.27 24.293C142.229 24.5 142.172 24.5923 142.439 24.5975C143.398 24.6161 144.398 24.5931 145.367 24.5983C145.37 24.5983 145.368 24.597 145.37 24.597C146.368 24.5823 147.355 24.6425 148.356 24.6048C148.559 24.597 148.686 24.5515 148.718 24.3068C148.856 23.2136 149 21.893 149.086 20.7279C149.319 17.538 149.828 12.302 150.039 9.71144C150.249 7.1205 150.207 8.16953 150.362 6.16633C150.499 5.06967 150.679 2.03693 150.789 1.20014C150.899 0.363775 150.696 0.56345 150.447 0.554354Z" fill="#F03E1E"></path>
    <path id="path14" d="M127.337 7.18121C127.334 7.18728 127.324 7.19421 127.317 7.19117C127.31 7.18858 127.302 7.17775 127.306 7.17039C127.31 7.16259 127.327 7.15349 127.335 7.15652C127.344 7.15955 127.341 7.17472 127.337 7.18121ZM124.329 13.4624C123.656 13.6287 122.962 13.5689 122.232 13.5542C121.503 13.5395 120.825 13.5386 120.329 12.9184C120.18 12.7317 120.214 12.2028 120.234 11.9893C120.418 10.822 120.615 9.15192 120.811 8.11069C121.007 7.0699 121.193 6.6082 121.534 5.76707C121.757 5.21744 122.104 4.9307 122.47 4.48069C122.613 4.30484 123.082 4.36071 123.196 4.53873C123.634 5.2222 123.94 5.79869 124.282 6.54756C124.823 7.73518 125.073 8.87819 125.166 10.2529C125.209 10.8857 125.292 11.7688 125.21 12.4818C125.157 12.9426 124.835 13.3376 124.329 13.4624ZM131.864 23.636C131.783 23.0712 131.714 22.5653 131.625 22.004C131.458 20.9398 131.327 19.8094 131.146 18.7504C130.916 17.4047 130.647 16.1005 130.401 14.7682C130.301 14.2277 130.192 13.6928 130.113 13.1523C130.009 12.4233 129.94 11.6857 129.838 10.9615C129.725 10.1542 129.59 9.33167 129.471 8.53863C129.351 7.74558 129.255 6.99064 129.121 6.21015C129.035 5.7034 128.914 5.22046 128.83 4.71068C128.638 3.55294 128.513 2.21719 128.296 1.07244C128.205 0.592108 127.962 0.543161 127.528 0.539263C127.463 0.538397 127.379 0.51458 127.305 0.511549C126.36 0.469103 125.415 0.603367 124.467 0.56222C123.633 0.525839 122.751 0.547499 121.923 0.533638C120.714 0.512848 119.426 0.511116 118.264 0.511549C117.836 0.511549 117.467 0.761457 117.376 1.04905C117.061 2.03744 116.966 2.98295 116.774 3.93582C116.58 4.88869 116.448 5.76187 116.307 6.70781C116.204 7.40211 116.194 8.07604 116.076 8.81452C115.766 10.7584 115.334 14.2108 115.107 15.8086C114.878 17.4068 114.75 17.7542 114.593 18.8396C114.37 20.3923 114.057 21.6055 113.876 23.0404C113.818 23.5087 113.7 23.8959 113.646 24.3065C113.61 24.5858 113.763 24.578 113.934 24.5819C115.726 24.6183 117.365 24.5754 118.867 24.5906C119.465 24.5967 120.072 24.6084 120.66 24.5906C120.929 24.5828 121.009 24.4849 120.93 24.2186C120.868 24.012 120.725 23.7976 120.638 23.5745C120.238 22.5502 119.915 21.4223 119.832 20.3196C119.787 19.7214 119.824 19.1285 120.122 18.6252C120.613 17.794 121.313 17.3999 122.123 17.1322C122.213 17.1023 122.381 17.0833 122.472 17.0833C123.098 17.0846 123.684 17.0915 124.286 17.2479C124.836 17.3908 125.261 17.6974 125.598 18.1605C125.831 18.4805 125.989 18.8413 126.058 19.2346C126.3 20.5994 126.043 21.6558 125.33 22.8334C125.211 23.0283 125.087 23.2232 124.983 23.4203C124.88 23.6169 124.757 23.7928 124.663 23.9886C124.604 24.1116 124.49 24.2203 124.552 24.3602C124.614 24.5001 124.755 24.5087 124.907 24.5139C125.925 24.546 127.248 24.5741 128.201 24.5945C129.481 24.6218 130.479 24.6183 131.683 24.6408C131.78 24.6421 131.916 24.5871 131.928 24.53C131.993 24.219 131.905 23.9188 131.864 23.636Z" fill="#F03E1E"></path>
    <path id="path16" d="M163.626 12.7819C163.583 13.6681 163.467 14.533 163.38 15.4252C163.366 15.5625 163.376 15.6739 163.347 15.8514C163.293 16.1849 163.219 16.693 163.052 17.0451C162.933 17.2981 162.805 17.6519 162.67 17.9387C162.268 18.7906 161.975 19.4355 161.442 20.2554C161.097 20.786 160.427 21.0034 159.797 21.0649C159.285 21.0255 158.571 20.8735 158.385 20.6595C158.147 20.2641 158.147 20.2641 158.086 19.3992C158.025 18.5342 157.938 16.8407 157.86 15.6513C157.831 15.2113 157.858 14.1302 157.857 13.6022C157.856 12.4973 157.904 11.69 157.962 10.5522C158.004 9.7496 158.086 8.97257 158.117 8.15267C158.149 7.27733 158.225 6.68179 158.448 5.83763C158.576 5.35037 159.359 5.14853 159.746 5.24555C160.939 5.54614 161.81 6.03383 162.422 7.13396C162.839 7.88413 163.09 8.68802 163.373 9.49146C163.54 9.9653 163.546 10.4677 163.584 10.9658C163.63 11.5713 163.656 12.1725 163.626 12.7819ZM169.161 22.7043C169.08 21.8675 168.979 21.019 168.855 20.1922C168.731 19.3654 168.538 18.5684 168.404 17.7481C168.314 17.1937 168.259 16.6384 168.201 16.081C168.109 15.1953 168.03 14.3095 167.942 13.4242C167.928 13.2783 167.917 13.1327 167.894 12.9889C167.816 12.5212 167.72 12.0538 167.656 11.5847C167.556 10.851 167.477 10.1074 167.393 9.37494C167.322 8.75168 167.243 8.11197 167.177 7.49953C167.11 6.88753 167.065 6.30453 166.987 5.70422C166.919 5.19011 166.817 4.69202 166.719 4.1857C166.655 3.8509 166.577 3.52215 166.53 3.18562C166.448 2.60003 166.52 2.01012 166.385 1.42757C166.272 0.938139 165.983 0.652279 165.452 0.595106C164.354 0.477297 163.193 0.640587 162.078 0.598141C161.985 0.594675 161.884 0.578655 161.787 0.571293C161.478 0.549204 161.131 0.569126 160.827 0.569992C159.707 0.573025 158.567 0.543566 157.463 0.563923C156.635 0.578648 155.845 0.522776 155.037 0.531439C154.632 0.536203 154.219 0.528845 153.843 0.547035C153.603 0.558296 153.53 0.647085 153.512 0.848053C153.452 1.53109 153.469 2.17167 153.423 2.85947C153.383 3.45199 153.322 4.06789 153.26 4.6721C153.199 5.27674 153.13 5.89047 153.073 6.50291C153.03 6.97328 153.056 7.44885 153.001 7.92962C152.672 10.7921 152.46 13.8994 152.199 16.6943C152.098 17.7728 152.006 18.4138 151.933 19.3805C151.907 19.7348 151.872 20.0038 151.851 20.3174C151.767 21.5539 151.56 22.7585 151.547 23.9807C151.541 24.4377 151.664 24.5412 152.16 24.5555C154.87 24.633 157.682 24.6244 160.421 24.6499C160.426 24.6499 160.426 24.6438 160.427 24.6438C163.173 24.6412 165.958 24.6789 168.69 24.6456C169.1 24.6408 169.264 24.4398 169.283 24.0734C169.306 23.6126 169.205 23.1591 169.161 22.7043Z" fill="#F03E1E"></path>
    <path id="path18" d="M186.875 0.697767C186.035 0.674812 184.999 0.690836 184.165 0.685638C181.609 0.670046 179.264 0.602474 176.674 0.572155C176.099 0.565659 175.044 0.569122 174.421 0.560026C173.672 0.549198 172.977 0.505894 172.266 0.524517C171.453 0.54574 170.606 0.490301 169.831 0.567396C169.378 0.612442 169.314 0.713793 169.321 1.15298C169.331 1.82519 169.432 2.5563 169.495 3.25189C169.572 4.08695 169.657 4.95103 169.792 5.7835C170.038 7.28903 170.32 8.78764 170.577 10.2897C170.605 10.4513 170.676 10.6081 170.699 10.7683C170.828 11.6545 170.901 12.5835 171.065 13.4502C171.143 13.8673 171.352 13.8673 171.712 13.8561C171.748 13.8552 171.809 13.8487 171.842 13.8617C172.237 14.0202 172.634 13.9388 173.04 13.9669C173.753 14.0154 174.473 13.9661 175.172 14.0973C176.658 14.3767 177.994 14.9319 179.343 15.5903C179.522 15.6773 179.746 15.6899 179.889 15.8181C180.242 16.1369 180.562 16.4002 180.862 16.7662C181.127 17.0893 181.328 17.4843 181.296 17.9157C181.116 18.7508 180.634 19.2696 179.899 19.6837C179.872 19.6989 179.837 19.7192 179.801 19.7327C179.166 19.97 178.608 20.0402 177.927 19.9263C177.339 19.6634 176.501 19.368 175.973 19.1029C175.445 18.8383 175.125 18.6065 174.707 18.3142C173.748 17.6424 172.807 16.9442 171.891 16.2711C171.647 16.0923 171.472 16.0957 171.421 16.379C171.314 16.9719 171.431 17.5406 171.478 18.1492C171.547 19.0501 171.73 19.9878 171.815 20.893C171.833 21.0879 171.762 21.2867 171.8 21.4716C171.953 22.227 172.026 23.0677 172.231 23.7863C172.373 24.2835 172.516 24.426 173.038 24.442C174.776 24.494 176.536 24.5325 178.3 24.5564C180.063 24.5806 181.87 24.5451 183.645 24.5369C183.887 24.5356 183.989 24.4788 184.04 24.196C184.183 23.396 184.325 22.5046 184.48 21.6865C184.496 21.602 184.481 21.5085 184.493 21.4314C184.746 19.8752 184.949 18.3194 185.165 16.7614C185.257 16.3937 185.312 16.0403 185.342 15.6604C185.4 14.954 185.45 14.3035 185.512 13.5698C185.537 13.2683 185.625 12.7304 185.635 12.4267C185.645 12.1231 185.576 11.9135 185.574 11.6437C185.573 11.5505 185.496 11.4271 185.429 11.4154C184.653 11.2837 183.891 11.2157 183.124 11.0841C182.278 10.9381 181.429 10.8874 180.617 10.5851C179.804 10.2828 178.972 9.94451 178.166 9.63656C177.727 9.46851 177.236 9.30869 176.955 8.94703C176.438 8.28305 175.968 7.71263 175.786 6.88709C175.603 6.06156 175.737 5.34474 176.161 4.60107C176.324 4.31347 176.621 4.17617 176.977 4.17747C177.421 4.1792 177.935 4.17272 178.394 4.21906C179.446 4.32431 180.414 4.58591 181.369 5.04805C181.927 5.31789 182.401 5.68864 182.904 6.05723C183.803 6.71558 184.571 7.43933 185.193 8.37358C185.393 8.6733 185.629 8.76296 185.995 8.64775C186.059 8.62782 186.109 8.28738 186.093 8.1739C186.085 8.12193 186.118 8.01624 186.129 7.93438C186.219 7.27127 186.303 6.58824 186.376 5.9143C186.436 5.3573 186.483 4.79901 186.559 4.24028C186.68 3.35022 186.835 2.46534 186.953 1.56964C186.977 1.38296 187.058 1.20452 187.084 1.00701C187.111 0.809942 187.172 0.705563 186.875 0.697767Z" fill="#F03E1E"></path>
    <path id="path20" d="M112.619 8.39268C112.131 7.70575 111.769 7.14745 111.127 6.66885C110.283 6.04039 109.548 5.42189 108.651 4.89261C107.815 4.39798 106.955 4.0909 105.982 3.99301C105.721 3.96702 105.431 3.93715 105.183 3.8908C104.508 3.76476 103.927 3.90812 103.382 4.27801C102.98 4.54958 102.657 5.02818 102.508 5.53537C102.323 6.16599 102.537 6.69094 102.916 7.13662C103.605 7.947 104.379 8.37493 105.309 8.87432C105.649 9.05666 105.967 9.29488 106.328 9.43608C107.056 9.72107 107.798 9.94153 108.551 10.1525C108.947 10.2638 109.361 10.272 109.768 10.3495C110.307 10.453 110.831 10.5505 111.379 10.664C111.763 10.7432 112.097 10.8589 112.536 10.8961C112.581 10.9 112.891 11.0789 112.873 11.2262C112.805 11.7858 112.734 12.3675 112.633 12.9236C112.503 13.6413 112.327 14.3438 112.303 15.0714C112.256 16.4713 112.012 17.814 111.782 19.1917C111.696 19.7132 111.727 20.226 111.649 20.7575C111.557 21.3885 111.432 21.9512 111.305 22.613C111.222 23.0448 111.167 23.6079 111.066 24.0834C111.014 24.329 110.615 24.6058 110.387 24.6084C108.886 24.627 107.449 24.6218 105.967 24.6188C105.971 24.6253 105.966 24.6331 105.97 24.6409C104.644 24.6049 103.362 24.5841 102.022 24.5447C101.357 24.5252 100.571 24.5334 99.8984 24.5027C99.6489 24.4914 99.5601 24.4135 99.4986 24.1753C99.2032 23.0353 99.0767 21.8381 98.9749 20.667C98.9373 20.2351 99.0005 19.8258 98.9719 19.4074C98.8978 18.3333 98.903 17.2994 98.835 16.2296C98.8156 15.9191 98.7021 15.5674 98.7735 15.2759C98.8454 14.9848 99.0178 14.9012 99.2994 14.9883C99.5813 15.0753 99.7992 15.2858 99.9534 15.5362C100.485 16.2712 100.796 16.9785 101.588 17.5095C101.933 17.7408 102.41 18.0587 102.751 18.3459C103.002 18.5572 103.269 18.7374 103.554 18.8929C104.227 19.2589 104.904 19.5976 105.601 19.9207C105.767 19.9973 105.976 20.0008 106.146 19.9999C106.61 19.9969 107.073 19.8107 107.471 19.5413C107.48 19.5365 107.491 19.5222 107.5 19.5149C108.306 18.8149 108.384 18.0188 108.088 17.0469C107.918 16.4865 107.541 16.143 107.215 15.7042C106.667 14.9666 105.984 14.6227 105.137 14.3217C104.227 13.9982 103.327 13.6274 102.43 13.2714C101.761 13.0054 101.054 12.811 100.396 12.5407C99.7364 12.27 99.1348 12.0465 98.521 11.6615C98.2915 11.5172 98.1849 11.1738 98.1442 10.897C97.9666 9.68772 97.8319 8.46242 97.6847 7.25097C97.5625 6.24743 97.4291 5.24301 97.294 4.24553C97.2069 3.60364 97.0865 2.944 97.0289 2.31337C96.9813 1.78799 96.9553 1.29725 96.9531 0.790068C96.9523 0.615086 97.038 0.627218 97.1775 0.589104C97.5123 0.498148 97.7609 0.48385 98.1286 0.520233C98.949 0.60166 99.8278 0.491215 100.665 0.500311C101.452 0.508972 102.252 0.555319 103.035 0.567881C104.017 0.584339 104.98 0.613359 105.96 0.612061C106.478 0.611193 106.992 0.592995 107.515 0.60339C109.695 0.647568 111.915 0.553152 114.086 0.609892C114.453 0.619854 114.589 0.715576 114.556 1.10019C114.484 1.93568 114.302 2.90674 114.123 3.72708C113.863 4.9199 113.682 6.04862 113.52 7.24058C113.47 7.6096 113.326 7.95393 113.222 8.30909C113.213 8.34157 113.17 8.36842 113.16 8.39138C113.037 8.68027 112.705 8.61574 112.619 8.39268Z" fill="#F03E1E"></path>
    <path id="path22" d="M26.6332 21.6208C26.4197 20.185 26.1433 19.0658 25.8865 17.7699C25.6838 16.7504 25.5404 15.6918 25.3732 14.6588C25.3286 14.3842 25.2385 14.1083 25.2056 13.8303C25.1502 13.359 25.158 12.8687 25.09 12.4022C24.9847 11.6811 24.8119 10.9621 24.698 10.2514C24.5841 9.5406 24.5165 8.84024 24.4247 8.13511C24.3177 7.31391 24.2047 6.51047 24.0999 5.69014C24.0405 5.2254 23.9916 4.76499 23.9379 4.29375C23.8837 3.82251 23.8274 3.31186 23.7759 2.84148C23.7365 2.48286 23.7118 2.08482 23.6537 1.75521C23.5957 1.4256 23.5849 1.20428 23.5385 0.880735C23.5069 0.658976 23.3813 0.564125 23.024 0.558928C22.8386 0.556763 22.5129 0.536833 22.3184 0.53207C21.3166 0.506948 20.2645 0.590113 19.2991 0.558062C19.0076 0.548532 18.7434 0.596169 18.7854 0.82226C18.8595 1.2242 19.0431 1.47585 19.1415 1.84443C19.2632 2.30354 19.4278 2.69465 19.562 3.18538C19.8167 4.1179 20.1372 5.0803 20.3278 6.05959C20.5327 7.11035 20.6401 8.17323 20.7587 9.2621C20.809 9.72251 20.8882 10.367 20.9077 10.8278C20.9571 12.0142 21.0697 13.252 21.0385 14.3907C20.9961 15.9625 20.6058 17.7439 20.2732 18.4612C20.0528 18.9368 19.6824 19.2846 19.5126 19.3994C18.3099 20.2141 17.4007 19.7238 16.4041 18.4534C15.7319 17.5976 15.4378 16.1752 15.2659 15.0651C15.0762 13.8406 15.058 12.6214 15.0337 11.4061C15.0216 10.7876 15.1381 10.2102 15.1836 9.60817C15.252 8.70251 15.294 7.81331 15.3993 6.91371C15.5591 5.54937 15.78 4.19239 15.9446 2.82806C16.0178 2.22298 16.201 1.62571 16.2638 1.02237C16.2967 0.708353 16.2239 0.562819 15.8632 0.562819C14.2013 0.564119 12.4727 0.545931 10.8237 0.567154C10.5288 0.571053 10.5004 0.655075 10.5435 0.92058C10.6308 1.45852 10.8574 1.96268 10.9582 2.51794C11.115 3.38116 11.2474 4.28508 11.3592 5.16562C11.4605 5.96343 11.5862 6.792 11.68 7.58418C11.7914 8.52493 11.8234 9.44834 11.8375 10.3839C11.8424 10.7079 11.8119 11.0305 11.8119 11.3415C11.8118 12.6028 11.7761 13.8203 11.7106 15.0828C11.6882 15.5142 11.6086 15.9876 11.4541 16.4065C11.1504 17.2307 11.0293 18.0268 10.4393 18.6427C9.84932 19.2586 9.06398 19.6744 8.2067 19.6709C7.51098 19.6683 6.97854 18.9476 6.59146 18.4291C6.51969 18.3334 6.48976 18.2057 6.45693 18.0917C6.27913 17.4728 6.05612 16.8764 5.93229 16.2414C5.78914 15.5099 5.75141 14.8368 5.74414 14.0702C5.73314 12.919 5.67155 11.9934 5.73535 10.9322C5.75107 10.6685 5.80893 10.3791 5.83735 10.1024C5.90691 9.43015 5.92332 8.74278 6.01553 8.06668C6.11888 7.30698 6.30889 6.54858 6.45087 5.79582C6.62866 4.85247 6.7427 3.89137 6.93337 2.95626C7.06755 2.29921 7.31945 1.708 7.55667 1.08994C7.60185 0.972128 7.73213 0.843054 7.68557 0.71788C7.63905 0.593142 7.41981 0.616098 7.31625 0.611769C6.38265 0.571487 5.18736 0.611769 4.33363 0.611769C3.61794 0.611769 3.51135 0.613493 3.39934 1.04878C3.38327 1.11159 3.38448 1.18176 3.37197 1.24932C3.24233 1.94839 3.11582 2.73581 3.00888 3.41884C2.70855 5.33541 2.51516 7.04668 2.21232 9.0044C2.03773 10.1322 1.88579 11.9301 1.71492 13.0091C1.48701 14.4483 1.33425 15.2457 1.06571 16.6629C0.760363 18.2737 0.551554 21.2098 0.160227 22.5889C-0.0931931 23.4824 -0.0593641 24.4803 0.357863 24.5024C4.53768 24.7263 8.49651 24.4678 12.5697 24.5999C14.6734 24.5418 15.8792 24.5024 18.215 24.5197C20.5508 24.5375 23.9976 24.5986 26.5708 24.5869C26.8051 24.5856 27.023 24.5154 27.0109 24.2209C26.9754 23.3828 26.7597 22.4715 26.6332 21.6208Z" fill="#F03E1E"></path>
    <path id="path24" d="M47.1076 0.55197C45.9897 0.505627 44.7969 0.608274 43.6595 0.560631C42.4451 0.563229 41.1717 0.568869 39.9854 0.558041C39.8325 0.55674 39.751 0.619104 39.6939 0.639462C39.4591 0.724354 39.5631 1.05093 39.6077 1.13452C39.8069 1.50657 40.0178 1.75779 40.0936 2.13937C40.2924 3.14032 40.577 3.9927 40.6948 5.03393C40.8261 6.1908 40.6641 7.36889 40.3414 8.54049C40.2058 9.03209 39.6046 9.55054 39.1425 9.716C38.1862 10.0573 37.3961 10.1114 36.4333 9.96114C36.215 9.92692 36.0322 9.87019 35.8551 9.75282C35.1855 9.30973 34.544 8.90952 34.0607 8.24598C33.5773 7.582 33.3239 6.80065 33.1212 6.0037C32.9839 5.46446 33.0069 4.87671 32.9874 4.32967C32.9714 3.87316 33.0199 3.36078 33.0948 2.94065C33.2113 2.28274 33.4695 1.67247 33.5829 1.05743C33.6444 0.724794 33.5812 0.608282 33.2533 0.590958C31.5455 0.499136 29.8057 0.545912 28.0879 0.524689C27.5552 0.518192 27.0289 0.548946 26.4966 0.538118C26.4494 0.537252 26.3857 0.59918 26.3909 0.638161C26.4866 1.38746 26.5897 2.0116 26.7145 2.77867C26.8804 3.80214 27.0909 4.90226 27.2308 5.96471C27.3577 6.92581 27.4075 7.93716 27.5292 8.90606C27.7024 10.286 27.9151 11.6573 28.1308 13.0311C28.2663 13.8952 28.4093 14.7303 28.5414 15.6034C28.7488 16.9712 28.9156 18.2606 29.1339 19.6644C29.3522 21.0686 29.4726 22.6088 29.8278 24.029C29.9113 24.3625 30.0894 24.5366 30.4982 24.5453C31.3649 24.5626 32.3208 24.5227 33.2273 24.5422C33.7579 24.5535 34.3383 24.5933 34.8858 24.5942C34.9724 24.5942 35.0815 24.5838 35.1378 24.4833C35.1565 24.4504 35.1413 24.3716 35.1058 24.3222C34.9222 24.0662 34.6679 23.8423 34.5276 23.5482C34.2153 22.8946 34.0451 22.1648 33.9147 21.4632C33.8216 20.9629 33.7458 20.4817 33.7393 19.9884C33.7241 18.7444 33.8238 17.604 34.1936 16.4043C34.327 15.9716 34.5783 15.5718 34.9235 15.2396C35.3111 14.8671 35.7286 14.6319 36.2917 14.528C36.8015 14.4344 37.3611 14.4795 37.9302 14.4868C37.9735 14.4873 38.4313 14.6436 38.4707 14.6679C38.6778 14.7983 38.7315 14.7796 38.9173 14.92C39.3621 15.2556 39.7311 15.6099 40.0408 16.1301C40.211 16.4164 40.4908 16.7755 40.5861 17.1354C40.7143 17.617 40.8105 18.1567 40.781 18.6539C40.6615 20.687 40.0936 22.3779 39.1131 24.123C38.9645 24.3876 38.9909 24.4513 39.2599 24.4972C39.8372 24.5946 40.3864 24.5526 40.9906 24.5652C41.9886 24.5851 43.0458 24.6297 44.0572 24.592C44.3023 24.5834 44.3751 24.5193 44.4119 24.2373C44.4924 23.6223 44.5678 22.7959 44.6406 22.1817C44.7138 21.5675 44.7731 21.0439 44.8337 20.4674C44.9074 19.7675 44.9637 19.0996 45.046 18.4105C45.104 17.9245 45.276 17.4243 45.3236 16.9383C45.4245 15.9136 45.4817 14.9083 45.5852 13.8753C45.6892 12.8423 45.8239 11.7928 45.9659 10.7525C46.0517 10.1266 46.1691 9.48773 46.2509 8.85537C46.3142 8.36984 46.338 7.87132 46.383 7.38232C46.3965 7.23809 46.4125 7.08781 46.4428 6.94791C46.5177 6.59838 46.6373 6.23109 46.6905 5.88416C46.879 4.65279 46.9812 3.38633 47.1501 2.18614C47.2116 1.74782 47.3796 1.44074 47.4334 1.06653C47.4866 0.692308 47.5343 0.569729 47.1076 0.55197Z" fill="#F03E1E"></path>
    <path id="path26" d="M91.485 23.7875C91.4339 23.2245 91.3936 22.6406 91.3096 22.1096C91.1242 20.9384 90.9076 19.8188 90.7426 18.6585C90.6131 17.7489 90.5602 16.8424 90.4446 15.9311C90.3918 15.5157 90.3047 15.1134 90.196 14.7019C90.1683 14.5967 90.0362 14.3931 89.9474 14.4386C89.859 14.484 89.7451 14.6906 89.6762 14.7955C89.6074 14.9007 89.5849 14.9925 89.5333 15.0865C89.1981 15.7016 88.8841 16.3149 88.5324 16.9178C88.1326 17.6017 87.7731 18.2964 87.2806 18.9253C86.9302 19.3731 86.4547 19.6898 85.9995 20.0345C85.7634 20.2138 85.4633 20.271 85.2146 20.4529C84.7291 20.8089 84.3527 21.0745 83.6931 21.0684C83.6498 21.068 83.5978 21.0693 83.5532 21.074C82.7385 21.1585 82.1767 21.0008 81.5565 20.5751C80.8535 20.0921 80.4637 19.4775 80.3312 18.6394C80.2441 18.0915 80.2472 17.5129 80.2103 16.9654C80.1917 16.6969 80.1778 16.401 80.2519 16.1533C80.4589 15.4607 80.8236 15.0281 81.2711 14.5611C81.6765 14.138 82.2092 13.9106 82.7134 13.6178C82.9533 13.4788 83.1958 13.3545 83.4869 13.3241C84.4082 13.2289 85.1406 13.1015 85.9527 13.6828C86.1207 13.8027 86.3945 13.804 86.4421 13.5104C86.4798 13.2752 86.4547 13.0084 86.427 12.7576C86.3629 12.1733 86.4698 11.5457 86.4057 10.9567C86.359 10.5244 86.4235 9.86999 86.3663 9.42561C86.3317 9.1536 85.9401 8.89806 85.6876 8.96087C85.3485 9.04576 85.0197 9.44769 84.6953 9.50184C83.451 9.71103 82.2694 9.61791 81.4712 8.55632C80.7916 7.65326 80.407 6.6848 80.6084 5.52446C80.8093 4.36499 81.5457 3.604 82.5553 3.01755C82.7857 2.88371 83.1244 2.83 83.3921 2.90493C84.1149 3.08165 84.9504 3.18083 85.5338 3.64124C86.2524 4.2082 86.7847 4.83796 87.3755 5.50973C88.0152 6.23738 88.3656 7.16643 88.9975 7.90664C89.1149 8.04437 89.3622 8.22498 89.4748 8.17301C89.5874 8.1206 89.5498 7.8564 89.5623 7.72169C89.5753 7.58743 89.5632 7.47525 89.5463 7.35527C89.3878 6.24648 89.2089 5.11732 89.0764 4.01632C88.9521 2.98333 88.9178 2.01053 88.8009 0.977535C88.768 0.684744 88.7216 0.538347 88.2941 0.543545C86.6764 0.563902 84.3921 0.593353 82.8416 0.597685C80.7063 0.603748 79.0799 0.592487 77.0594 0.607212C76.9658 0.608078 76.8298 0.721127 76.822 0.793892C76.6687 2.26608 76.5803 3.64948 76.4248 5.12946C76.2776 6.53278 76.0783 8.0002 75.9107 9.42734C75.8293 10.1234 75.7552 10.8151 75.6916 11.5323C75.6279 12.25 75.5876 13.0097 75.5196 13.7447C75.4668 14.3164 75.3546 14.8752 75.3178 15.4603C75.2212 16.9901 75.1618 18.4125 74.8885 19.9635C74.6642 21.2351 74.6291 22.6584 74.2111 23.9378C74.1418 24.1492 74.1336 24.5524 74.4476 24.5918C75.1112 24.675 75.7964 24.5897 76.4725 24.5875C77.0832 24.5854 77.7138 24.604 78.3254 24.5996C82.298 24.5723 86.2602 24.5425 90.2358 24.5866C90.5758 24.5901 90.9249 24.5879 91.2567 24.6109C91.329 24.6161 91.4611 24.597 91.4746 24.552C91.5469 24.3081 91.5053 24.0123 91.485 23.7875Z" fill="#F03E1E"></path>
    <path id="path28" d="M73.4577 0.630125C73.1948 0.632292 72.814 0.63056 72.5637 0.619297C71.8265 0.585947 71.2375 0.59721 70.5025 0.598942C66.5251 0.606306 62.5295 0.585951 58.5539 0.568192C57.7362 0.564295 56.8764 0.547394 56.0812 0.5383C55.642 0.533102 55.3873 0.666504 55.4458 1.0156C55.5606 1.69907 55.5645 2.47913 55.6736 3.03483C55.83 3.82831 55.8694 4.38703 55.9985 5.10775C56.0886 5.61147 56.163 6.09917 56.2644 6.5912C56.3658 7.08279 56.432 7.57829 56.5139 8.05862C56.5953 8.53896 56.7794 9.16526 56.8721 9.65469C56.9227 9.91976 57.2307 10.3594 57.5824 10.3646C57.9337 10.3698 57.8301 9.66074 57.8873 9.37921C57.8921 9.35626 57.8877 9.33894 57.8912 9.31598C57.9583 8.90495 57.948 8.51903 58.0376 8.10193C58.1472 7.59258 58.3161 7.10229 58.4426 6.57648C58.7713 5.2117 59.23 4.17827 60.613 3.63686C61.2293 3.39561 61.8309 3.48701 62.4468 3.70357C62.5871 3.75294 62.708 3.90974 62.7708 4.0544C63.0393 4.67593 63.1835 5.28273 63.1281 5.96403C63.1056 6.23907 63.0692 6.51367 63.0532 6.78697C62.9878 7.90226 63.0328 9.00413 62.8162 10.1064C62.5568 11.4279 62.3203 12.7476 62.1233 14.0851C62.0488 14.5875 61.8959 15.0735 61.817 15.5811C61.6667 16.5565 61.3683 17.3677 61.0942 18.438C60.8217 19.4996 60.6619 20.5183 60.3466 21.5968C60.156 22.2495 59.9992 23.0447 59.7762 23.7056C59.7216 23.8676 59.6614 24.014 59.5999 24.1617C59.5414 24.302 59.6185 24.4619 59.7645 24.5043C59.9247 24.5511 60.0728 24.597 60.2937 24.5957C62.9419 24.581 65.8615 24.5636 68.4598 24.5771C69.3179 24.5818 69.9914 24.6204 70.6735 24.5931C71.4766 24.5619 71.4332 24.5675 71.1764 23.846C70.8329 22.8801 70.4163 21.6474 70.0806 20.6326C69.9429 20.2173 69.7471 19.8539 69.6544 19.4454C69.4794 18.6771 69.2473 17.9434 69.0619 17.1837C68.8908 16.4863 68.7353 15.8072 68.5811 15.106C68.187 13.3111 67.6542 11.5457 67.2384 9.75603C67.1514 9.38138 67.0834 9.00846 67.0206 8.63294C66.9405 8.15304 66.8759 7.66664 66.8019 7.19064C66.7529 6.87576 66.6381 6.55135 66.6347 6.24556C66.6312 5.93935 66.5117 5.28664 66.5844 4.99644C66.7395 4.38054 67.0089 4.29045 67.6382 3.95478C68.4867 3.5026 69.4803 3.54288 70.2123 4.21119C70.6372 4.59926 70.9109 4.97392 71.1604 5.63313C71.3371 6.10047 71.6281 6.55742 71.739 7.02259C71.9794 8.03524 72.2428 9.0626 72.6144 10.009C72.6698 10.1497 72.7733 10.3265 73.0059 10.3394C73.174 10.3265 73.3745 9.98342 73.394 9.83529C73.4689 9.26271 73.4598 8.78887 73.5274 8.22191C73.6699 7.02606 73.7565 6.41362 73.8501 5.53958C73.9848 4.27616 74.2187 3.00754 74.3802 1.81039C74.4972 0.941542 74.6215 0.619297 73.4577 0.630125Z" fill="#F03E1E"></path>
    <path id="path30" d="M56.3964 24.0298C56.309 23.4256 56.1816 22.5962 56.0673 21.9907C55.8421 20.8 55.622 19.6951 55.4159 18.5248C55.3422 18.1069 55.2322 17.7114 55.1989 17.2857C55.1465 16.6135 54.9814 16.0235 54.8329 15.36C54.816 15.2855 54.803 15.1989 54.7917 15.1157C54.6484 14.0836 54.6276 13.1017 54.5124 12.0938C54.4123 11.2202 54.2923 10.3423 54.175 9.47039C54.0862 8.81334 53.9792 8.14459 53.8891 7.491C53.7397 6.40993 53.5902 5.26865 53.4339 4.21183C53.2775 3.15501 53.1194 2.20041 52.96 1.16005C52.8869 0.682312 52.7751 0.597857 52.4152 0.568403C51.7906 0.517729 51.1258 0.554546 50.5025 0.537655C50.2513 0.530724 50.1816 0.666718 50.1547 0.876348C50.098 1.32506 50.0386 1.62695 49.9815 2.09905C49.91 2.68897 49.8411 3.38327 49.7744 4.01173C49.7276 4.44789 49.7251 4.91306 49.6609 5.35874C49.4665 6.71312 49.314 8.09435 49.1191 9.44656C48.9242 10.7983 48.8003 11.9089 48.621 13.4044C48.534 14.1308 48.4231 14.8792 48.3438 15.5826C48.2871 16.0842 48.2221 16.5844 48.1576 17.0908C48.0476 17.9488 47.957 18.7869 47.8219 19.6527C47.6863 20.5181 47.4932 21.3401 47.3429 22.2384C47.2619 22.7227 47.1917 23.4165 47.1445 23.9163C47.1099 24.2841 47.3095 24.5344 47.6573 24.5457L54.479 24.5911C54.9537 24.5751 55.4726 24.6427 55.9382 24.6067C56.3393 24.576 56.4597 24.4673 56.3964 24.0298Z" fill="#F03E1E"></path>
    <path id="path32" d="M63.6628 40.4182V38.5021H60.0835V40.4182H58.0781V35.0735H60.0835V36.9827H63.6628V35.0735H65.6682V40.4182H63.6628Z" fill="#F03E1E"></path>
    <path id="path34" d="M81.044 37.7218C81.044 37.1193 80.4623 36.4349 78.7584 36.4349C77.129 36.4349 76.4996 37.1054 76.4996 37.7218C76.4996 38.4061 77.1636 39.022 78.7649 39.022C80.3527 39.022 81.044 38.4061 81.044 37.7218ZM82.3992 35.9966C82.8852 36.4622 83.0905 37.0166 83.0905 37.7144C83.0905 38.4329 82.8509 39.0081 82.4061 39.446C81.701 40.1646 80.4419 40.5002 78.7718 40.5002C77.129 40.5002 75.9041 40.1373 75.1717 39.4326C74.7134 38.9943 74.4531 38.4329 74.4531 37.701C74.4531 37.0643 74.6654 36.5237 75.131 36.0789C75.9249 35.285 77.129 34.929 78.7718 34.929C80.435 34.929 81.6395 35.2716 82.3992 35.9966Z" fill="#F03E1E"></path>
    <path id="path36" d="M96.1248 36.4764V40.4182H94.0718V36.4764H91.2656V35.0735H98.931V36.4764H96.1248Z" fill="#F03E1E"></path>
    <path id="path38" d="M107.438 40.4182V35.0735H114.042V36.4829H109.416V37.078H113.926V38.4129H109.416V39.0153H114.104V40.4182H107.438Z" fill="#F03E1E"></path>
    <path id="path40" d="M123.078 40.4182V35.0735H125.09V38.8923H129.033V40.4182H123.078Z" fill="#F03E1E"></path>
  </g>
</svg>
